#!OML:ASF X:\für Bonn\!DataBase\2005_08_10_Bjorn_Final\c3d\bjorn.ASF
:FULLY-SPECIFIED
:DEGREES
754
root -0.150834 1.56993 10.2228 -2430.7 -3.8785 186.08
lowerback -0.904274 0.122213 -6.34885
upperback 3.46125 0.261178 -3.86071
thorax 4.07964 -0.110881 -0.438988
lowerneck -19.6189 -5.04305 -1.109
upperneck 10.8623 -6.98305 3.84037
head 6.67597 -2.97288 0.6425
rclavicle -2.14687e-014 5.36719e-015
rhumerus -427.051 52.8403 255.089
rradius 111.507
rwrist -33.149
rhand 7.23696 8.49218
rfingers 7.12502
rthumb 32.5012 -18.612
lclavicle -2.14687e-014 5.36719e-015
lhumerus -67.1325 -66.5633 109.088
lradius 109.643
lwrist 36.7133
lhand -0.268537 -11.4086
lfingers 7.12502
lthumb 25.3331 736.929
rfemur -185.722 -157.696 184.004
rtibia 27.5249
rfoot 3.35513 -6.57074
rtoes 12.3506
lfemur 174.423 175.365 161.493
ltibia 22.9168
lfoot 4.45456 14.8187
ltoes 2.46247
755
root -0.150806 1.56983 10.2224 -2430.71 -3.8787 186.112
lowerback -0.893752 0.110175 -6.35629
upperback 3.4635 0.245057 -3.85506
thorax 4.07666 -0.118861 -0.429684
lowerneck -19.6476 -5.04292 -1.12641
upperneck 10.8849 -6.98062 3.8473
head 6.68881 -2.97107 0.646852
rclavicle -1.51076e-014 -2.88238e-014
rhumerus -427.049 52.8604 255.093
rradius 111.509
rwrist -33.1275
rhand 7.24308 8.48568
rfingers 7.12502
rthumb 32.507 -18.6173
lclavicle -1.51076e-014 -2.88238e-014
lhumerus -67.0863 -66.5489 109.04
lradius 109.629
lwrist 36.8277
lhand -0.162905 -11.3448
lfingers 7.12502
lthumb 25.4343 736.978
rfemur -185.716 -157.688 184.001
rtibia 27.5299
rfoot 3.36246 -6.48029
rtoes 12.2352
lfemur 174.435 175.339 161.511
ltibia 22.9069
lfoot 4.37933 14.9151
ltoes 2.85877
756
root -0.150688 1.56962 10.2223 -2430.72 -3.86346 186.14
lowerback -0.883129 0.101934 -6.35411
upperback 3.47334 0.233905 -3.84681
thorax 4.08134 -0.1245 -0.422892
lowerneck -19.6692 -5.0421 -1.10684
upperneck 10.8797 -6.98299 3.8419
head 6.68981 -2.97134 0.641414
rclavicle -3.10104e-014 5.87409e-014
rhumerus -427.013 52.8542 255.1
rradius 111.485
rwrist -33.0787
rhand 7.22089 8.48929
rfingers 7.12502
rthumb 32.4859 -18.618
lclavicle -3.10104e-014 5.87409e-014
lhumerus -67.0214 -66.5378 108.974
lradius 109.609
lwrist 36.9539
lhand -0.0720968 -11.2366
lfingers 7.12502
lthumb 25.5213 737.074
rfemur -185.701 -157.739 184.021
rtibia 27.5279
rfoot 3.37471 -6.40126
rtoes 12.6912
lfemur 174.449 175.316 161.547
ltibia 22.8978
lfoot 4.29857 14.9903
ltoes 3.24169
757
root -0.150842 1.56969 10.222 -2430.73 -3.86263 186.163
lowerback -0.881719 0.0922252 -6.35986
upperback 3.48969 0.222134 -3.83935
thorax 4.09812 -0.131173 -0.41271
lowerneck -19.7169 -5.04458 -1.13837
upperneck 10.8803 -6.98153 3.86817
head 6.69989 -2.96869 0.653985
rclavicle -6.36111e-015 5.93372e-014
rhumerus -426.954 52.8957 255.138
rradius 111.474
rwrist -33.0561
rhand 7.19835 8.47495
rfingers 7.12502
rthumb 32.4645 -18.6367
lclavicle -6.36111e-015 5.93372e-014
lhumerus -66.911 -66.5364 108.871
lradius 109.588
lwrist 37.0563
lhand 0.0375543 -11.1394
lfingers 7.12502
lthumb 25.6263 737.156
rfemur -185.69 -157.783 184.025
rtibia 27.5271
rfoot 3.40499 -6.31846
rtoes 13.0308
lfemur 174.459 175.289 161.564
ltibia 22.8895
lfoot 4.26991 15.0481
ltoes 3.44476
758
root -0.150965 1.56981 10.2232 -2430.74 -3.84644 186.19
lowerback -0.869646 0.0765349 -6.36406
upperback 3.49177 0.201442 -3.81931
thorax 4.09423 -0.141091 -0.390419
lowerneck -19.7261 -5.03979 -1.13874
upperneck 10.8901 -6.97327 3.84933
head 6.7036 -2.96661 0.648595
rclavicle 4.13472e-014 -1.02871e-013
rhumerus -426.978 52.9341 255.138
rradius 111.485
rwrist -33.0376
rhand 7.17756 8.48347
rfingers 7.12502
rthumb 32.4447 -18.6323
lclavicle 4.13472e-014 -1.02871e-013
lhumerus -66.874 -66.4928 108.836
lradius 109.557
lwrist 37.1318
lhand 0.117742 -11.0529
lfingers 7.12502
lthumb 25.7031 737.232
rfemur -185.672 -157.804 184.044
rtibia 27.518
rfoot 3.40359 -6.25808
rtoes 13.0192
lfemur 174.471 175.347 161.59
ltibia 22.8843
lfoot 4.16831 15.163
ltoes 3.83513
759
root -0.151314 1.56971 10.223 -2430.74 -3.84528 186.207
lowerback -0.868332 0.0754662 -6.3705
upperback 3.50909 0.200746 -3.81299
thorax 4.11164 -0.14256 -0.380585
lowerneck -19.7782 -5.04101 -1.14226
upperneck 10.8891 -6.97468 3.85959
head 6.71231 -2.96538 0.651244
rclavicle 3.10104e-014 -5.02925e-014
rhumerus -426.911 52.9398 255.185
rradius 111.461
rwrist -33.0169
rhand 7.16945 8.48285
rfingers 7.12502
rthumb 32.437 -18.6345
lclavicle 3.10104e-014 -5.02925e-014
lhumerus -66.7659 -66.518 108.754
lradius 109.518
lwrist 37.2506
lhand 0.182996 -11.0278
lfingers 7.12502
lthumb 25.7656 737.248
rfemur -185.662 -157.827 184.05
rtibia 27.5137
rfoot 3.38366 -6.22829
rtoes 12.8537
lfemur 174.477 175.291 161.606
ltibia 22.8813
lfoot 4.15999 15.1771
ltoes 4.08146
760
root -0.151608 1.56997 10.2235 -2430.75 -3.83243 186.243
lowerback -0.86138 0.0624591 -6.36157
upperback 3.51954 0.183778 -3.80414
thorax 4.11928 -0.150785 -0.377191
lowerneck -19.8059 -5.05076 -1.16439
upperneck 10.8917 -6.98376 3.87183
head 6.71914 -2.96893 0.656997
rclavicle -1.82882e-014 5.25785e-014
rhumerus -426.906 52.9556 255.192
rradius 111.459
rwrist -32.979
rhand 7.15149 8.47397
rfingers 7.12502
rthumb 32.4199 -18.6469
lclavicle -1.82882e-014 5.25785e-014
lhumerus -66.7071 -66.5117 108.705
lradius 109.477
lwrist 37.3353
lhand 0.239645 -11.0847
lfingers 7.12502
lthumb 25.8199 737.183
rfemur -185.639 -157.861 184.067
rtibia 27.5045
rfoot 3.34049 -6.24229
rtoes 12.8059
lfemur 174.484 175.254 161.64
ltibia 22.8791
lfoot 4.14043 15.1838
ltoes 4.3561
761
root -0.152119 1.57025 10.2233 -2430.76 -3.83203 186.252
lowerback -0.858387 0.0529577 -6.37763
upperback 3.52086 0.171976 -3.78932
thorax 4.11947 -0.156982 -0.353418
lowerneck -19.81 -5.04315 -1.16641
upperneck 10.8944 -6.97137 3.85642
head 6.71981 -2.96488 0.653636
rclavicle 3.65764e-014 -4.54223e-014
rhumerus -426.927 53.002 255.182
rradius 111.464
rwrist -32.9563
rhand 7.1109 8.4581
rfingers 7.12502
rthumb 32.3813 -18.6706
lclavicle 3.65764e-014 -4.54223e-014
lhumerus -66.6871 -66.4676 108.702
lradius 109.43
lwrist 37.3639
lhand 0.295827 -11.1522
lfingers 7.12502
lthumb 25.8737 737.108
rfemur -185.629 -157.824 184.06
rtibia 27.4948
rfoot 3.37296 -6.21557
rtoes 12.7178
lfemur 174.486 175.277 161.644
ltibia 22.8837
lfoot 4.11043 15.2221
ltoes 4.58882
762
root -0.151984 1.5704 10.2232 -2430.77 -3.81617 186.285
lowerback -0.855792 0.0419778 -6.36509
upperback 3.54079 0.15821 -3.78215
thorax 4.13939 -0.164119 -0.3538
lowerneck -19.8623 -5.04566 -1.18647
upperneck 10.8976 -6.97323 3.88686
head 6.73134 -2.96251 0.665286
rclavicle 1.59028e-015 -1.2921e-015
rhumerus -426.851 53.015 255.229
rradius 111.434
rwrist -32.9152
rhand 7.10372 8.47346
rfingers 7.12502
rthumb 32.3744 -18.6567
lclavicle 1.59028e-015 -1.2921e-015
lhumerus -66.6192 -66.4857 108.637
lradius 109.409
lwrist 37.4503
lhand 0.327805 -11.1875
lfingers 7.12502
lthumb 25.9043 737.068
rfemur -185.603 -157.911 184.089
rtibia 27.485
rfoot 3.25747 -6.27219
rtoes 12.5397
lfemur 174.496 175.299 161.671
ltibia 22.8817
lfoot 4.05227 15.2596
ltoes 4.94161
763
root -0.152618 1.57 10.2235 -2430.78 -3.80291 186.304
lowerback -0.837294 0.0424733 -6.35443
upperback 3.55161 0.157277 -3.77467
thorax 4.14016 -0.164559 -0.352037
lowerneck -19.8859 -5.05096 -1.19011
upperneck 10.8966 -6.97896 3.88578
head 6.73506 -2.96505 0.664371
rclavicle -3.97569e-014 2.03754e-014
rhumerus -426.826 53.0066 255.262
rradius 111.435
rwrist -32.9159
rhand 7.14263 8.45845
rfingers 7.12502
rthumb 32.4114 -18.6641
lclavicle -3.97569e-014 2.03754e-014
lhumerus -66.5846 -66.5016 108.618
lradius 109.366
lwrist 37.512
lhand 0.360473 -11.278
lfingers 7.12502
lthumb 25.9356 736.973
rfemur -185.569 -157.928 184.101
rtibia 27.4751
rfoot 3.21264 -6.29305
rtoes 12.4939
lfemur 174.508 175.304 161.693
ltibia 22.8842
lfoot 4.0362 15.295
ltoes 5.2694
764
root -0.152691 1.57004 10.2243 -2430.78 -3.80269 186.321
lowerback -0.838346 0.029563 -6.36339
upperback 3.55876 0.141307 -3.77026
thorax 4.14896 -0.172928 -0.343309
lowerneck -19.9225 -5.04057 -1.17795
upperneck 10.9034 -6.96707 3.87788
head 6.74218 -2.95895 0.660474
rclavicle 7.95139e-015 -1.45113e-014
rhumerus -426.818 53.0361 255.261
rradius 111.439
rwrist -32.8858
rhand 7.11457 8.44357
rfingers 7.12502
rthumb 32.3847 -18.6845
lclavicle 7.95139e-015 -1.45113e-014
lhumerus -66.5693 -66.4795 108.597
lradius 109.334
lwrist 37.5204
lhand 0.350451 -11.3585
lfingers 7.12502
lthumb 25.926 736.894
rfemur -185.559 -157.967 184.112
rtibia 27.4629
rfoot 3.16656 -6.33747
rtoes 12.2685
lfemur 174.504 175.318 161.7
ltibia 22.8843
lfoot 4.00991 15.3174
ltoes 5.63105
765
root -0.153064 1.57053 10.2245 -2430.8 -3.78795 186.337
lowerback -0.832918 0.0220336 -6.36616
upperback 3.57698 0.132232 -3.74656
thorax 4.16529 -0.178182 -0.317801
lowerneck -19.9641 -5.05485 -1.24
upperneck 10.909 -6.97522 3.91223
head 6.75449 -2.96157 0.679376
rclavicle -6.36111e-015 3.18055e-015
rhumerus -426.79 53.0829 255.294
rradius 111.428
rwrist -32.8566
rhand 7.07969 8.45805
rfingers 7.12502
rthumb 32.3515 -18.6768
lclavicle -6.36111e-015 3.18055e-015
lhumerus -66.4903 -66.467 108.555
lradius 109.291
lwrist 37.5564
lhand 0.363518 -11.4336
lfingers 7.12502
lthumb 25.9385 736.817
rfemur -185.525 -157.987 184.125
rtibia 27.4513
rfoot 3.12021 -6.38833
rtoes 12.1933
lfemur 174.522 175.314 161.722
ltibia 22.8875
lfoot 4.01593 15.314
ltoes 5.76603
